<?xml version="1.0" encoding="UTF-8" standalone="no"?>
<svg
   version="1.1"
   id="Layer_1"
   x="0px"
   y="0px"
   width="180"
   viewBox="0 0 180 180"
   enable-background="new 0 0 157 180"
   xml:space="preserve"
   sodipodi:docname="logseq-logo.svg"
   inkscape:version="1.2.2 (b0a8486541, 2022-12-01)"
   height="180"
   xmlns:inkscape="http://www.inkscape.org/namespaces/inkscape"
   xmlns:sodipodi="http://sodipodi.sourceforge.net/DTD/sodipodi-0.dtd"
   xmlns="http://www.w3.org/2000/svg"
   xmlns:svg="http://www.w3.org/2000/svg"><defs
   id="defs58" /><sodipodi:namedview
   id="namedview56"
   pagecolor="#ffffff"
   bordercolor="#000000"
   borderopacity="0.25"
   inkscape:showpageshadow="2"
   inkscape:pageopacity="0.0"
   inkscape:pagecheckerboard="0"
   inkscape:deskcolor="#d1d1d1"
   showgrid="false"
   inkscape:zoom="4.6055556"
   inkscape:cx="157.85283"
   inkscape:cy="81.857659"
   inkscape:window-width="2560"
   inkscape:window-height="1369"
   inkscape:window-x="1912"
   inkscape:window-y="-8"
   inkscape:window-maximized="1"
   inkscape:current-layer="Layer_1" />

<path
   fill="#85c6c5"
   opacity="1"
   stroke="none"
   d="m 55.404211,117.01015 c -3.686356,-15.57731 8.271583,-35.16401 22.55114,-42.398376 17.206592,-8.717272 43.318159,-5.013094 57.266629,8.309738 9.82344,9.38282 14.36829,28.187448 7.69562,40.020148 -9.0866,16.11332 -33.7187,21.66081 -52.057384,19.23221 C 76.492969,140.27121 58.74171,131.11331 55.404211,117.01015 Z"
   id="path33"
   sodipodi:nodetypes="aaaaaa" />
<path
   fill="#84c5c4"
   opacity="1"
   stroke="none"
   d="m 35.033551,67.29566 c -4.415463,-7.119078 -5.34056,-19.67042 1.029922,-25.110507 6.568165,-5.608898 19.483799,-2.953342 25.736635,3.005062 5.735781,5.465695 6.635314,16.015606 3.891178,23.448151 -1.445357,3.914779 -5.451021,7.474083 -9.58341,8.055383 -7.616646,1.071428 -17.020213,-2.86162 -21.074325,-9.398089 z"
   id="path35"
   sodipodi:nodetypes="aaaaaa" />
<path
   fill="#84c4c3"
   opacity="1"
   stroke="none"
   d="m 83.069918,56.345104 c -3.296667,-3.541714 -1.757007,-11.089378 1.76403,-14.40812 7.946271,-7.489733 25.438712,-10.212661 32.694672,-2.052371 3.3466,3.763695 1.08136,11.542355 -2.70318,14.865363 -7.96416,6.992911 -24.534422,9.352985 -31.755522,1.595128 z"
   id="path37"
   sodipodi:nodetypes="aaaaa" />








</svg>
